<?xml version="1.0" encoding="UTF-8"?>
<!DOCTYPE svg PUBLIC "-//W3C//DTD SVG 1.1//EN" "http://www.w3.org/Graphics/SVG/1.1/DTD/svg11.dtd">
<svg xmlns="http://www.w3.org/2000/svg" version="1.1" width="280px" height="280px" style="shape-rendering:geometricPrecision; text-rendering:geometricPrecision; image-rendering:optimizeQuality; fill-rule:evenodd; clip-rule:evenodd" xmlns:xlink="http://www.w3.org/1999/xlink">
<g><path style="opacity:0.995" fill="#e1e4e6" d="M 63.5,-0.5 C 106.5,-0.5 149.5,-0.5 192.5,-0.5C 192.333,18.8362 192.5,38.1695 193,57.5C 196.272,65.2776 202.106,69.2776 210.5,69.5C 227.5,87.1667 244.833,104.5 262.5,121.5C 262.667,169.834 262.5,218.168 262,266.5C 259.727,272.27 255.894,276.603 250.5,279.5C 188.167,279.5 125.833,279.5 63.5,279.5C 59.2379,277.074 55.7379,273.74 53,269.5C 51.5943,261.251 51.0943,252.917 51.5,244.5C 108.892,244.988 166.226,244.488 223.5,243C 225.041,241.421 226.208,239.587 227,237.5C 227.831,203.997 227.664,170.664 226.5,137.5C 225.409,134.572 223.409,132.406 220.5,131C 164.168,130.5 107.834,130.333 51.5,130.5C 51.3333,91.1653 51.5,51.8319 52,12.5C 54.273,6.73035 58.1063,2.39702 63.5,-0.5 Z"/></g>
<g><path style="opacity:0.996" fill="#b0b7bc" d="M 192.5,-0.5 C 192.833,-0.5 193.167,-0.5 193.5,-0.5C 216.5,22.8333 239.5,46.1667 262.5,69.5C 245.167,69.5 227.833,69.5 210.5,69.5C 202.106,69.2776 196.272,65.2776 193,57.5C 192.5,38.1695 192.333,18.8362 192.5,-0.5 Z"/></g>
<g><path style="opacity:0.981" fill="#c9d0d7" d="M 210.5,69.5 C 227.833,69.5 245.167,69.5 262.5,69.5C 262.5,86.8333 262.5,104.167 262.5,121.5C 244.833,104.5 227.5,87.1667 210.5,69.5 Z"/></g>
<g><path style="opacity:0.996" fill="#f05642" d="M 51.5,130.5 C 107.834,130.333 164.168,130.5 220.5,131C 223.409,132.406 225.409,134.572 226.5,137.5C 226.667,168.502 226.5,199.502 226,230.5C 225.535,231.931 224.701,233.097 223.5,234C 166.081,235.159 108.748,235.992 51.5,236.5C 42.1607,236.666 32.8274,236.5 23.5,236C 21.4127,235.208 19.5793,234.041 18,232.5C 16.8471,216.255 16.3471,199.922 16.5,183.5C 16.3471,167.078 16.8471,150.745 18,134.5C 19.214,132.951 20.714,131.785 22.5,131C 32.1609,130.5 41.8276,130.334 51.5,130.5 Z"/></g>
<g><path style="opacity:0.997" fill="#cdcbd0" d="M 226.5,137.5 C 227.664,170.664 227.831,203.997 227,237.5C 226.208,239.587 225.041,241.421 223.5,243C 166.226,244.488 108.892,244.988 51.5,244.5C 51.5,241.833 51.5,239.167 51.5,236.5C 108.748,235.992 166.081,235.159 223.5,234C 224.701,233.097 225.535,231.931 226,230.5C 226.5,199.502 226.667,168.502 226.5,137.5 Z"/></g>
</svg>
